HIERARCHY
ROOT Hips
{
    OFFSET   0.000000   0.000000   0.000000
    CHANNELS 6 Xposition Yposition Zposition Zrotation Xrotation Yrotation
    JOINT Chest
    {
        OFFSET   0.000000   8.007230   0.000000
        CHANNELS 3 Zrotation Xrotation Yrotation
        JOINT Chest2
        {
            OFFSET   0.000000  22.077100   0.000000
            CHANNELS 3 Zrotation Xrotation Yrotation
            JOINT Neck
            {
                OFFSET   0.000000  23.255100   0.000000
                CHANNELS 3 Zrotation Xrotation Yrotation
                JOINT Head
                {
                    OFFSET   0.000000  14.370100   1.956600
                    CHANNELS 3 Zrotation Xrotation Yrotation
                    End Site
                    {
                        OFFSET   0.000000  19.566000   0.000000
                    }
                }
            }
            JOINT LeftCollar
            {
                OFFSET   3.911900  19.017000  -0.467063
                CHANNELS 3 Zrotation Xrotation Yrotation
                JOINT LeftShoulder
                {
                    OFFSET  10.383700   0.000000   0.000000
                    CHANNELS 3 Zrotation Xrotation Yrotation
                    JOINT LeftElbow
                    {
                        OFFSET  26.662100   0.001193   0.000980
                        CHANNELS 3 Zrotation Xrotation Yrotation
                        JOINT LeftWrist
                        {
                            OFFSET  28.869000  -0.000059  -0.000082
                            CHANNELS 3 Zrotation Xrotation Yrotation
                            JOINT LeftFinger0
                            {
                                OFFSET   2.044650  -2.323450   3.252850
                                CHANNELS 3 Zrotation Xrotation Yrotation
                                JOINT LeftFinger01
                                {
                                    OFFSET   3.088130   0.000000   0.000000
                                    CHANNELS 3 Zrotation Xrotation Yrotation
                                    JOINT LeftFinger02
                                    {
                                        OFFSET   2.639460   0.000000   0.000000
                                        CHANNELS 3 Zrotation Xrotation Yrotation
                                        End Site
                                        {
                                            OFFSET   2.582190   0.000000   0.000000
                                        }
                                    }
                                }
                            }
                            JOINT LeftFinger1
                            {
                                OFFSET   8.364480   0.000000   3.252850
                                CHANNELS 3 Zrotation Xrotation Yrotation
                                JOINT LeftFinger11
                                {
                                    OFFSET   4.646930   0.000000   0.000000
                                    CHANNELS 3 Zrotation Xrotation Yrotation
                                    JOINT LeftFinger12
                                    {
                                        OFFSET   2.323470   0.000000   0.000000
                                        CHANNELS 3 Zrotation Xrotation Yrotation
                                        End Site
                                        {
                                            OFFSET   2.273050   0.000000   0.000000
                                        }
                                    }
                                }
                            }
                            JOINT LeftFinger2
                            {
                                OFFSET   8.364490   0.000016   1.078090
                                CHANNELS 3 Zrotation Xrotation Yrotation
                                JOINT LeftFinger21
                                {
                                    OFFSET   5.111610   0.000000   0.000000
                                    CHANNELS 3 Zrotation Xrotation Yrotation
                                    JOINT LeftFinger22
                                    {
                                        OFFSET   2.788150   0.000016   0.000000
                                        CHANNELS 3 Zrotation Xrotation Yrotation
                                        End Site
                                        {
                                            OFFSET   2.727660   0.000000   0.000000
                                        }
                                    }
                                }
                            }
                            JOINT LeftFinger3
                            {
                                OFFSET   7.899780   0.000015  -1.078090
                                CHANNELS 3 Zrotation Xrotation Yrotation
                                JOINT LeftFinger31
                                {
                                    OFFSET   4.646930   0.000000   0.000000
                                    CHANNELS 3 Zrotation Xrotation Yrotation
                                    JOINT LeftFinger32
                                    {
                                        OFFSET   2.323470   0.000000   0.000000
                                        CHANNELS 3 Zrotation Xrotation Yrotation
                                        End Site
                                        {
                                            OFFSET   2.273050   0.000000   0.000000
                                        }
                                    }
                                }
                            }
                            JOINT LeftFinger4
                            {
                                OFFSET   7.435090   0.000000  -3.252850
                                CHANNELS 3 Zrotation Xrotation Yrotation
                                JOINT LeftFinger41
                                {
                                    OFFSET   3.717550   0.000000   0.000000
                                    CHANNELS 3 Zrotation Xrotation Yrotation
                                    JOINT LeftFinger42
                                    {
                                        OFFSET   1.858770   0.000000   0.000000
                                        CHANNELS 3 Zrotation Xrotation Yrotation
                                        End Site
                                        {
                                            OFFSET   1.818440   0.000000   0.000000
                                        }
                                    }
                                }
                            }
                        }
                    }
                }
            }
            JOINT RightCollar
            {
                OFFSET  -3.911910  19.017000  -0.467062
                CHANNELS 3 Zrotation Xrotation Yrotation
                JOINT RightShoulder
                {
                    OFFSET -10.383700   0.000014   0.000000
                    CHANNELS 3 Zrotation Xrotation Yrotation
                    JOINT RightElbow
                    {
                        OFFSET -26.662100   0.001225   0.001091
                        CHANNELS 3 Zrotation Xrotation Yrotation
                        JOINT RightWrist
                        {
                            OFFSET -28.869000  -0.000020  -0.000085
                            CHANNELS 3 Zrotation Xrotation Yrotation
                            JOINT RightFinger0
                            {
                                OFFSET  -2.044650  -2.323490   3.252850
                                CHANNELS 3 Zrotation Xrotation Yrotation
                                JOINT RightFinger01
                                {
                                    OFFSET  -3.088130   0.000000   0.000000
                                    CHANNELS 3 Zrotation Xrotation Yrotation
                                    JOINT RightFinger02
                                    {
                                        OFFSET  -2.639460   0.000000   0.000000
                                        CHANNELS 3 Zrotation Xrotation Yrotation
                                        End Site
                                        {
                                            OFFSET  -2.582190   0.000000   0.000000
                                        }
                                    }
                                }
                            }
                            JOINT RightFinger1
                            {
                                OFFSET  -8.364480   0.000000   3.252850
                                CHANNELS 3 Zrotation Xrotation Yrotation
                                JOINT RightFinger11
                                {
                                    OFFSET  -4.646930   0.000000   0.000000
                                    CHANNELS 3 Zrotation Xrotation Yrotation
                                    JOINT RightFinger12
                                    {
                                        OFFSET  -2.323470   0.000000   0.000000
                                        CHANNELS 3 Zrotation Xrotation Yrotation
                                        End Site
                                        {
                                            OFFSET  -2.273050   0.000000   0.000000
                                        }
                                    }
                                }
                            }
                            JOINT RightFinger2
                            {
                                OFFSET  -8.364480   0.000000   1.078090
                                CHANNELS 3 Zrotation Xrotation Yrotation
                                JOINT RightFinger21
                                {
                                    OFFSET  -5.111620   0.000000   0.000000
                                    CHANNELS 3 Zrotation Xrotation Yrotation
                                    JOINT RightFinger22
                                    {
                                        OFFSET  -2.788160   0.000000   0.000000
                                        CHANNELS 3 Zrotation Xrotation Yrotation
                                        End Site
                                        {
                                            OFFSET  -2.727660   0.000000   0.000000
                                        }
                                    }
                                }
                            }
                            JOINT RightFinger3
                            {
                                OFFSET  -7.899780   0.000000  -1.078090
                                CHANNELS 3 Zrotation Xrotation Yrotation
                                JOINT RightFinger31
                                {
                                    OFFSET  -4.646930   0.000000   0.000000
                                    CHANNELS 3 Zrotation Xrotation Yrotation
                                    JOINT RightFinger32
                                    {
                                        OFFSET  -2.323470   0.000000   0.000000
                                        CHANNELS 3 Zrotation Xrotation Yrotation
                                        End Site
                                        {
                                            OFFSET  -2.273050   0.000000   0.000000
                                        }
                                    }
                                }
                            }
                            JOINT RightFinger4
                            {
                                OFFSET  -7.435090   0.000000  -3.252850
                                CHANNELS 3 Zrotation Xrotation Yrotation
                                JOINT RightFinger41
                                {
                                    OFFSET  -3.717550   0.000000   0.000000
                                    CHANNELS 3 Zrotation Xrotation Yrotation
                                    JOINT RightFinger42
                                    {
                                        OFFSET  -1.858760   0.000000   0.000000
                                        CHANNELS 3 Zrotation Xrotation Yrotation
                                        End Site
                                        {
                                            OFFSET  -1.818440   0.000000   0.000000
                                        }
                                    }
                                }
                            }
                        }
                    }
                }
            }
        }
    }
    JOINT LeftHip
    {
        OFFSET   9.783030   0.000000   0.000000
        CHANNELS 3 Zrotation Xrotation Yrotation
        JOINT LeftKnee
        {
            OFFSET   0.000063 -41.789100   0.000608
            CHANNELS 3 Zrotation Xrotation Yrotation
            JOINT LeftAnkle
            {
                OFFSET   0.000048 -41.133200  -0.000184
                CHANNELS 3 Zrotation Xrotation Yrotation
                JOINT LeftToe
                {
                    OFFSET   0.000000  -6.358960  14.674500
                    CHANNELS 3 Zrotation Xrotation Yrotation
                    End Site
                    {
                        OFFSET   0.000000   0.000000   3.913200
                    }
                }
            }
        }
    }
    JOINT RightHip
    {
        OFFSET  -9.783030   0.000000   0.000000
        CHANNELS 3 Zrotation Xrotation Yrotation
        JOINT RightKnee
        {
            OFFSET   0.000071 -41.789100   0.001239
            CHANNELS 3 Zrotation Xrotation Yrotation
            JOINT RightAnkle
            {
                OFFSET   0.000037 -41.133200  -0.000166
                CHANNELS 3 Zrotation Xrotation Yrotation
                JOINT RightToe
                {
                    OFFSET   0.000000  -6.358960  14.674500
                    CHANNELS 3 Zrotation Xrotation Yrotation
                    End Site
                    {
                        OFFSET   0.000000   0.000000   3.913200
                    }
                }
            }
        }
    }
}
MOTION
Frames: 4
Frame Time:   0.016667
  1.777730  89.572400   0.307506  -5.738260 -20.821500  -5.645460   1.016370  14.142300  -0.013797   2.139380  28.282200  -0.310960   3.526670  -2.199990   0.135487   5.817420  -4.410620   4.306500  -5.217830  -9.243380   0.030629 -64.210700  43.336000 -46.675200  26.620800 -28.964600 -73.135500  84.231800 -18.248800 -27.975500  45.268700  39.296800 -81.395500  13.065400  -0.009780   0.002353  11.532700  -0.001068   0.000442 -21.822400   5.974110 -14.573100 -18.477100   0.001276   0.003731 -12.934000   0.001755   0.001586 -26.982400   0.685166  -1.342110 -26.992800   0.001065   0.001242 -17.977200   0.005082   0.001025 -27.826100   0.705743  -1.330950 -30.963500  -0.003771  -0.006692 -20.621700  -0.001373  -0.005080 -30.092400   0.396366  -0.675819 -45.139800  -0.002766  -0.006057 -30.063100  -0.002553  -0.004378  13.844300  -6.560880  14.755200  61.904200  25.417400  40.019400 -43.121500 -37.100300  60.585400 -76.385400 -20.646000  33.053700 -56.804900  47.647500  95.343600  -3.601330   0.003713  -0.000278  -6.800620   0.000595  -0.000281  24.041600   9.443630  20.213600  21.051400  -0.002385  -0.003496  14.735900  -0.003147  -0.000506  27.219500   2.327110   4.515470  28.319300   0.005195   0.001973  18.860600   0.001025  -0.006306  26.992700  -0.399609  -0.796470  27.037400   0.005649  -0.003267  18.006800   0.003917  -0.004704  33.157900  -0.476960  -0.741170  49.748900  -0.002761   0.000884  33.132800  -0.006836   0.000031   2.204030  23.121600   5.316330   1.032960   0.118050   3.187630   0.089703  -3.262920   1.817420   0.000000   0.000000   0.000000   5.158960  21.099900  -6.312810  -1.834450   3.671450  -6.004160   0.487057  -4.885800   0.499264   0.000000   0.000000   0.000000
  1.765130  89.572600   0.297286  -5.733050 -20.799300  -5.655150   1.009540  14.131000  -0.003376   2.121970  28.259700  -0.286901   3.473830  -2.262060   0.137288   5.731560  -4.536780   4.375980  -5.246620  -9.286290  -0.013219 -64.316000  43.189100 -46.456200  26.901000 -28.378000 -73.665800  83.777500 -17.448500 -29.478900  45.572400  39.702100 -81.982200  13.028800  -0.010602   0.002544  11.514400  -0.001273   0.002482 -21.683900   6.053710 -14.859900 -18.390200   0.001350   0.003582 -12.873200   0.001780   0.001623 -26.933600   0.962281  -1.897320 -26.907100  -0.000727  -0.001073 -17.920100   0.005065  -0.000821 -27.882600   0.991627  -1.881560 -31.390700  -0.003214  -0.006977 -20.906200  -0.001336  -0.005197 -30.293200   0.568041  -0.982438 -45.451600  -0.002995  -0.005875 -30.270800  -0.002567  -0.004242  13.804700  -6.556990  14.695100  61.892900  25.382600  39.945200 -43.233900 -36.287500  61.531900 -76.293100 -20.047300  35.398600 -57.312500  48.634700  97.483700  -4.142030  -0.002139  -0.000300  -7.070980   0.000648  -0.000298  24.241600   9.481540  20.102500  21.211900  -0.002225  -0.003539  14.848300  -0.003225  -0.000508  27.248200   2.357000   4.570880  28.469600   0.005193   0.001913  18.960700   0.000959  -0.006443  26.897900   0.065100   0.127885  26.875600   0.005507  -0.002323  17.899100   0.003854  -0.004468  33.038000   0.047246   0.066408  49.559700  -0.002799   0.000929  33.006800  -0.007228   0.000000   2.210300  23.107400   5.302440   1.030950   0.087443   3.195000   0.084214  -3.242000   1.834460  -0.000000   0.000000   0.000000   5.163010  21.078100  -6.304050  -1.827960   3.645970  -6.024730   0.468525  -4.864310   0.523278   0.000000   0.000000   0.000000
  1.751320  89.572800   0.287338  -5.730120 -20.775200  -5.668800   1.003850  14.119000   0.006528   2.107080  28.235900  -0.264225   3.418970  -2.320490   0.138994   5.642420  -4.655600   4.453670  -5.270450  -9.324780  -0.046515 -64.404500  43.094000 -46.245700  27.287800 -27.817000 -74.116200  83.344600 -16.717300 -30.812000  45.635200  39.746100 -82.029700  12.363000  -0.010646   0.002409  11.181500  -0.001481   0.004381 -21.532900   5.879820 -14.522000 -18.234500   0.001427   0.003446 -12.764200   0.001802   0.001665 -26.821800   0.803311  -1.582380 -26.794200  -0.001286  -0.002154 -17.844900   0.005032  -0.001655 -27.891200   0.826840  -1.569400 -31.390600  -0.002523  -0.007563 -20.906200  -0.001309  -0.005472 -30.288900   0.382314  -0.662066 -45.438300  -0.003183  -0.005765 -30.261900  -0.002586  -0.003953  13.743200  -6.549010  14.621000  61.820900  25.438800  39.975000 -43.477000 -35.553700  62.223700 -76.098100 -19.516900  37.734300 -57.508500  49.372100  98.976100  -4.277010  -0.002439  -0.000324  -7.138480   0.000695  -0.000314  24.404900   9.518470  20.033100  21.346000  -0.002060  -0.003550  14.942200  -0.003300  -0.000517  27.286700   2.209940   4.279300  28.585300   0.005195   0.001856  19.037800   0.000890  -0.006557  26.863500   0.220148   0.441312  26.810700   0.005238  -0.001620  17.855900   0.003774  -0.004157  32.902800   0.184160   0.282085  49.360600  -0.002834   0.000977  32.874200  -0.007623  -0.000046   2.214930  23.102400   5.291170   1.027830   0.034704   3.203910   0.078929  -3.210950   1.850710   0.000000   0.000000   0.000000   5.166980  21.056900  -6.293440  -1.817720   3.618900  -6.049350   0.450766  -4.843770   0.553662  -0.000000   0.000000   0.000000
  1.735990  89.573000   0.276684  -5.728740 -20.749300  -5.685910   0.996793  14.105100   0.017860   2.088910  28.208300  -0.238137   3.365290  -2.377360   0.140626   5.555190  -4.771210   4.533130  -5.290840  -9.354670  -0.073707 -64.500700  42.978200 -46.012600  27.616000 -27.234900 -74.607400  82.965600 -16.028100 -31.970100  45.698000  39.790000 -82.077300  11.410200  -0.010652   0.002171  10.705100  -0.001712   0.006353 -21.389500   5.629260 -14.053600 -18.068600   0.001509   0.003320 -12.648000   0.001822   0.001707 -26.694400   0.592194  -1.173260 -26.700300  -0.001442  -0.002566 -17.782400   0.004987  -0.001926 -27.896600   0.613734  -1.161590 -31.390100  -0.001689  -0.008149 -20.905800  -0.001283  -0.005757 -30.283200   0.126629  -0.220581 -45.424900  -0.003370  -0.005662 -30.253000  -0.002605  -0.003543  13.680200  -6.537490  14.545300  61.702600  25.537500  40.033200 -43.777000 -34.838900  62.804400 -75.932400 -18.996800  39.894100 -57.630400  50.092200 100.311000  -4.439760  -0.002482  -0.000349  -7.219870   0.000740  -0.000332  24.553000   9.549330  19.966100  21.466900  -0.001886  -0.003556  15.026900  -0.003372  -0.000529  27.319000   2.062720   3.987800  28.682700   0.005197   0.001800  19.102700   0.000823  -0.006669  26.858400   0.242296   0.486088  26.801400   0.004983  -0.001161  17.849700   0.003678  -0.003779  32.777400   0.203718   0.312896  49.168800  -0.002873   0.001019  32.746400  -0.008016  -0.000094   2.220000  23.092000   5.279850   1.023790  -0.001366   3.213800   0.072099  -3.190280   1.868540   0.000000   0.000000   0.000000   5.170040  21.032600  -6.279060  -1.804460   3.595280  -6.076650   0.432679  -4.825760   0.586607  -0.000000   0.000000   0.000000
